<?xml version="1.0" standalone="no"?>
<!DOCTYPE svg PUBLIC "-//W3C//DTD SVG 20010904//EN"
 "http://www.w3.org/TR/2001/REC-SVG-20010904/DTD/svg10.dtd">
<svg version="1.0" xmlns="http://www.w3.org/2000/svg"
 width="512.000000pt" height="512.000000pt" viewBox="0 0 512.000000 512.000000"
 preserveAspectRatio="xMidYMid meet">
<metadata>
Created by potrace 1.11, written by Peter Selinger 2001-2013
</metadata>
<g transform="translate(0.000000,512.000000) scale(0.100000,-0.100000)"
fill="#000000" stroke="none">
<path d="M980 4155 c-4 -5 -19 -30 -32 -55 -69 -127 -92 -167 -106 -182 -8
-10 -11 -18 -7 -18 4 0 1 -8 -7 -17 -9 -10 -30 -45 -48 -78 -17 -33 -51 -94
-75 -135 -24 -41 -44 -78 -44 -82 -1 -5 833 -8 1853 -8 l1855 0 -185 278
c-102 152 -192 284 -200 292 -12 12 -211 14 -1505 15 -982 0 -1493 -3 -1499
-10z"/>
<path d="M1918 3338 c58 -91 197 -294 204 -296 4 -2 8 -9 8 -15 0 -7 12 -26
28 -42 15 -16 26 -32 26 -35 -2 -5 65 -110 76 -120 11 -10 127 -186 133 -202
3 -10 11 -18 17 -18 5 0 10 -4 10 -9 0 -5 25 -46 56 -92 136 -201 179 -264
184 -269 3 -3 11 -17 19 -32 8 -16 18 -28 23 -28 4 0 8 -4 8 -10 0 -8 101
-163 127 -195 5 -5 37 -53 71 -105 41 -62 60 -100 56 -112 -14 -45 -128 -230
-161 -262 -76 -74 -175 -78 -291 -13 -53 29 -98 78 -143 152 -13 22 -31 49
-41 59 -10 11 -20 28 -24 38 -3 10 -10 18 -15 18 -5 0 -9 5 -9 10 0 9 -115
186 -130 200 -3 3 -9 13 -15 22 -5 10 -109 164 -230 344 -245 363 -231 342
-300 449 -27 42 -55 82 -60 89 -6 6 -73 104 -149 219 l-138 207 -299 0 c-164
0 -299 -2 -299 -5 0 -6 191 -299 200 -305 3 -3 22 -31 41 -62 18 -32 37 -58
41 -58 5 0 8 -4 8 -9 0 -5 19 -37 43 -71 23 -34 58 -86 77 -115 19 -30 71
-107 114 -172 44 -65 78 -118 75 -119 -2 0 7 -14 21 -31 31 -37 16 -15 220
-323 93 -140 173 -259 177 -265 9 -11 527 -785 650 -970 40 -60 78 -118 85
-128 7 -10 39 -57 70 -105 32 -48 62 -94 68 -102 6 -8 41 -61 79 -118 l69
-103 21 43 c11 24 52 101 92 173 66 121 128 236 204 380 85 160 118 221 127
233 6 6 7 12 3 12 -5 0 -1 8 7 18 9 9 24 35 35 57 28 57 155 298 163 310 4 6
33 60 65 120 53 102 83 159 173 325 19 36 59 112 90 170 30 58 58 110 62 115
4 6 36 64 70 130 35 66 74 140 88 165 14 25 39 72 56 105 16 33 33 62 36 65 3
3 32 57 64 120 77 149 107 207 160 305 89 166 146 277 146 283 0 4 -553 7
-1229 7 l-1230 0 17 -27z m1170 -470 c137 -2 228 -7 224 -12 -3 -5 2 -7 11 -3
9 3 19 1 23 -5 4 -6 3 -8 -4 -4 -6 3 -14 1 -18 -5 -4 -7 -3 -9 3 -6 5 3 29
-13 54 -36 24 -22 47 -41 51 -42 12 0 21 -15 9 -15 -9 0 -8 -5 3 -15 8 -9 13
-22 10 -29 -3 -8 -1 -17 5 -21 10 -6 16 8 12 28 -1 5 4 5 10 1 8 -4 9 -3 5 5
-4 6 -12 9 -17 6 -5 -4 -9 -1 -9 4 0 6 6 11 13 11 7 1 5 6 -6 14 -12 9 -14 16
-8 21 6 3 11 1 11 -6 0 -7 3 -9 7 -6 3 4 11 3 17 -3 7 -5 17 -5 26 2 12 8 12
9 -2 4 -10 -3 -20 -1 -23 5 -4 5 -3 9 2 8 25 -4 35 1 24 15 -8 10 -8 16 2 25
8 6 18 7 22 3 5 -4 5 -1 0 7 -5 9 -4 12 3 7 8 -5 10 -2 6 9 -6 14 -8 14 -19
-2 -13 -17 -14 -17 -21 0 -6 17 -7 17 -21 -3 -14 -19 -40 -30 -28 -11 3 5 0
13 -6 17 -8 5 -9 3 -4 -6 5 -9 4 -11 -4 -6 -6 4 -9 12 -6 17 4 5 1 9 -4 9 -15
0 -14 -13 2 -29 10 -11 8 -11 -10 0 -12 7 -20 16 -18 19 2 4 -2 7 -10 7 -8 0
-15 -5 -15 -11 0 -6 -5 -4 -10 4 -5 8 -10 10 -10 5 0 -6 5 -16 12 -23 9 -9 9
-12 1 -12 -14 0 -26 18 -30 43 -2 12 1 16 9 11 18 -11 98 -10 98 1 0 6 3 6 8
-1 4 -5 33 -10 64 -9 54 1 56 0 46 -20 -6 -11 -17 -24 -25 -28 -7 -5 -11 -12
-8 -17 3 -5 1 -11 -5 -15 -6 -4 -8 -10 -5 -15 3 -5 -5 -16 -17 -24 -12 -9 -19
-16 -14 -16 5 0 -4 -16 -18 -35 -15 -19 -24 -35 -21 -35 6 0 -35 -79 -87 -172
-18 -31 -56 -98 -84 -149 l-52 -92 -37 59 c-21 33 -42 61 -46 62 -5 2 -9 8 -9
12 0 11 -122 194 -132 198 -5 2 -8 10 -8 17 0 8 -6 20 -12 27 -12 11 -154 224
-172 255 -4 8 0 11 12 8 11 -2 123 -5 250 -7z m322 -49 c0 -5 4 -8 9 -4 5 3
12 1 16 -5 4 -6 10 -8 15 -5 4 3 10 -2 14 -10 3 -8 11 -15 18 -15 11 0 11 2 0
8 -10 7 -8 13 7 26 11 10 21 13 25 7 4 -5 2 -12 -3 -16 -6 -3 -8 -12 -5 -19 3
-9 -2 -13 -18 -12 -13 1 -27 0 -33 -3 -21 -12 -33 -9 -28 7 4 10 2 13 -5 8 -6
-3 -14 -1 -19 6 -11 19 -13 38 -2 38 5 0 9 -5 9 -11z"/>
<path d="M3466 2838 c3 -4 9 -8 15 -8 5 0 9 4 9 8 0 5 -7 9 -15 9 -8 0 -12 -4
-9 -9z"/>
<path d="M3525 2801 c-3 -5 -2 -12 3 -15 5 -3 9 1 9 9 0 17 -3 19 -12 6z"/>
<path d="M3484 2736 c1 -8 5 -18 8 -22 4 -3 5 1 4 10 -1 8 -5 18 -8 22 -4 3
-5 -1 -4 -10z"/>
<path d="M3406 2799 c3 -5 9 -7 14 -4 5 3 13 -3 19 -12 6 -10 11 -13 11 -6 0
13 -17 26 -38 29 -6 1 -10 -2 -6 -7z"/>
</g>
</svg>
